<?xml version="1.0" encoding="utf-8"?>
<!-- Generator: Adobe Illustrator 22.1.0, SVG Export Plug-In . SVG Version: 6.00 Build 0)  -->
<svg version="1.1" id="Layer_1" xmlns="http://www.w3.org/2000/svg" xmlns:xlink="http://www.w3.org/1999/xlink" x="0px" y="0px"
	 viewBox="0 0 385.512 62.362" enable-background="new 0 0 385.512 62.362" xml:space="preserve">
<g>
	<polygon fill="#ED1C24" points="21.324,40.109 7.284,40.109 7.284,17.069 1.38,17.069 1.38,45.293 21.324,45.293 	"/>
	<path fill="#ED1C24" d="M20.964,31.253c0,9.144,5.4,14.832,14.04,14.832c8.568,0,14.04-5.688,14.04-14.832
		s-5.472-14.904-14.04-14.904C26.364,16.349,20.964,22.109,20.964,31.253z M43.068,31.253c0,6.264-3.024,9.792-8.064,9.792
		s-8.064-3.528-8.064-9.792c0-6.336,3.024-9.864,8.064-9.864S43.068,24.989,43.068,31.253z"/>
	<path fill="#ED1C24" d="M50.124,34.853v2.16c0,2.736,0.072,4.608,1.872,6.48c1.656,1.728,4.176,2.592,7.416,2.592
		c3.528,0,6.264-1.008,7.704-2.88c1.368-1.728,1.44-3.6,1.44-6.12V17.069H62.58v19.728c0,3.168-0.576,4.392-3.24,4.392
		c-2.232,0-3.456-0.936-3.456-2.952v-3.384H50.124z"/>
	<path fill="#ED1C24" d="M79.932,17.069L69.708,45.293h6.264l1.872-5.76h5.544h5.616l1.944,5.76h6.192L86.772,17.069h-3.384H79.932z
		 M87.348,34.781h-3.96h-4.032l4.032-12.024L87.348,34.781z"/>
	<path fill="#ED1C24" d="M109.596,41.117c-3.96,0-6.12-1.296-6.552-4.464h-5.832c0.288,5.904,4.464,9.432,11.808,9.432
		c7.416,0,11.52-3.456,11.52-9.216c0-2.88-1.152-5.04-3.456-6.336c-1.8-1.008-4.032-1.512-6.768-2.232
		c-4.752-1.152-6.984-1.152-6.984-3.816c0-2.16,1.728-3.456,4.824-3.456c3.6,0,5.544,1.44,5.76,4.248h5.688
		c-0.216-5.688-4.176-9-10.872-9c-7.272,0-11.088,3.096-11.088,8.568c0,2.952,1.08,5.112,3.096,6.408
		c1.872,1.152,4.032,1.584,6.336,2.088c5.328,1.152,7.704,1.656,7.704,4.248C114.78,39.965,113.052,41.117,109.596,41.117z"/>
	<path fill="#ED1C24" d="M143.58,17.069l-10.224,28.224h6.192l1.872-5.76h5.544h5.616l1.944,5.76h6.192L150.42,17.069h-3.456
		C146.964,17.069,143.58,17.069,143.58,17.069z M150.996,34.781h-4.032h-3.96l3.96-12.024L150.996,34.781z"/>
	<polygon fill="#ED1C24" points="191.028,45.293 191.028,17.069 182.244,17.069 176.628,38.597 170.868,17.069 162.156,17.069 
		162.156,45.293 167.7,45.293 167.7,22.541 173.604,45.293 179.652,45.293 185.484,22.541 185.484,45.293 	"/>
	<polygon fill="#ED1C24" points="215.364,21.965 215.364,17.069 194.484,17.069 194.484,45.293 216.084,45.293 216.084,40.109 
		200.316,40.109 200.316,32.837 214.068,32.837 214.068,28.013 200.316,28.013 200.316,21.965 	"/>
	<path fill="#ED1C24" d="M242.148,25.133c0-5.472-2.952-8.064-9.216-8.064h-2.376h-11.592v28.224h5.976V34.349h5.616h0.648
		c3.24,0,4.176,1.152,4.248,4.464l0.072,2.952c0.072,1.512,0.288,2.736,0.72,3.528h6.48v-0.864c-1.08-0.576-1.08-1.512-1.152-3.168
		l-0.072-3.312c-0.144-3.384-0.864-5.184-3.6-6.12C240.636,30.893,242.148,28.589,242.148,25.133z M231.852,29.453h-1.296h-5.616
		v-7.488h5.616h1.584c2.736,0,4.104,1.296,4.104,3.744C236.244,28.301,234.876,29.453,231.852,29.453z"/>
	<rect x="245.388" y="17.069" fill="#ED1C24" width="5.904" height="28.224"/>
	<path fill="#ED1C24" d="M268.572,21.533c3.744,0,5.904,1.728,6.408,4.896h5.832c-0.432-6.336-4.824-10.08-12.24-10.08
		c-9,0-13.968,5.256-13.968,14.904c0,9.504,5.04,14.832,13.464,14.832c7.488,0,12.312-4.104,12.744-10.44h-5.76
		c-0.72,3.384-3.024,5.256-6.624,5.256c-4.968,0-7.776-3.456-7.776-9.648C260.652,24.917,263.388,21.533,268.572,21.533z"/>
	<path fill="#ED1C24" d="M288.3,39.533h5.544h5.616l1.944,5.76h6.192L297.3,17.069h-3.456h-3.384l-10.296,28.224h6.264L288.3,39.533
		z M293.844,22.757l4.032,12.024h-4.032h-3.96L293.844,22.757z"/>
	<polygon fill="#ED1C24" points="315.228,17.069 308.964,17.069 308.964,45.293 314.868,45.293 314.868,25.925 326.604,45.293 
		332.724,45.293 332.724,17.069 326.892,17.069 326.892,36.509 	"/>
	<path fill="#ED1C24" d="M347.7,17.069h-3.384l-10.224,28.224h6.192l1.872-5.76h5.544h5.616l1.944,5.76h6.192l-10.296-28.224
		C351.156,17.069,347.7,17.069,347.7,17.069z M347.7,34.781h-3.96l3.96-12.024l4.032,12.024H347.7z"/>
	<path fill="#ED1C24" d="M372.612,46.085c7.416,0,11.52-3.456,11.52-9.216c0-2.88-1.152-5.04-3.528-6.336
		c-1.8-1.008-4.032-1.512-6.768-2.232c-4.752-1.152-6.912-1.152-6.912-3.816c0-2.16,1.728-3.456,4.824-3.456
		c3.528,0,5.472,1.44,5.688,4.248h5.688c-0.216-5.688-4.104-9-10.872-9c-7.2,0-11.088,3.096-11.088,8.568
		c0,2.952,1.08,5.112,3.168,6.408c1.872,1.152,4.032,1.584,6.336,2.088c5.256,1.152,7.632,1.656,7.632,4.248
		c0,2.376-1.656,3.528-5.184,3.528c-3.96,0-6.12-1.296-6.552-4.464h-5.832C361.092,42.557,365.268,46.085,372.612,46.085z"/>
	<rect x="1.38" y="53.213" fill="#ED1C24" width="382.608" height="7.848"/>
	<rect x="1.38" y="1.301" fill="#ED1C24" width="382.608" height="7.848"/>
</g>
</svg>
