<?xml version="1.0" encoding="utf-8"?>
<!-- Generator: Adobe Illustrator 22.1.0, SVG Export Plug-In . SVG Version: 6.00 Build 0)  -->
<svg version="1.1" id="Camada_1" xmlns="http://www.w3.org/2000/svg" xmlns:xlink="http://www.w3.org/1999/xlink" x="0px" y="0px"
	 viewBox="0 0 175.748 56.693" enable-background="new 0 0 175.748 56.693" xml:space="preserve">
<g>
	<polygon fill="#FFD520" points="0,55.452 175.748,55.452 175.748,1.24 0,1.24 0,55.452 	"/>
	<polygon fill="#145EAB" points="88.856,39.267 89.897,37.752 90.631,36.096 91.104,34.463 91.246,32.972 91.033,31.481 
		90.394,30.44 89.448,29.754 88.217,29.541 86.703,29.659 85.425,30.014 84.455,30.558 83.769,31.221 84.005,29.801 79.864,29.801 
		75.817,46.034 80.337,46.034 81.237,42.012 81.97,42.13 82.916,42.154 83.981,42.035 85.472,41.657 87.176,40.781 88.028,40.119 
		88.856,39.267 	"/>
	<polygon fill="#145EAB" points="73.759,42.035 77.758,26.062 72.978,26.062 68.979,42.035 73.759,42.035 	"/>
	<polygon fill="#145EAB" points="96.24,42.012 99.268,29.801 94.63,29.801 91.625,42.012 96.24,42.012 	"/>
	<polygon fill="#145EAB" points="104.711,38.367 105.941,35.433 106.485,34.652 107.29,33.824 108.189,33.209 109.041,32.949 
		110.082,33.067 110.745,29.636 109.514,29.564 108.355,29.731 107.361,30.132 106.604,30.677 106.083,31.197 106.391,29.848 
		102.345,29.848 99.363,42.035 103.622,42.035 104.711,38.367 	"/>
	<polygon fill="#145EAB" points="116.968,40.639 116.637,42.012 120.66,42.012 123.57,30.416 122.884,30.109 121.843,29.848 
		120.518,29.612 118.909,29.517 116.637,29.754 115.596,30.062 114.649,30.464 113.04,31.505 111.691,32.83 110.674,34.321 
		109.987,35.883 109.562,37.397 109.396,38.841 109.657,39.953 110.295,41.042 111.383,41.87 112.07,42.107 112.851,42.201 
		114.27,42.059 115.265,41.704 116.968,40.639 	"/>
	<polygon fill="#145EAB" points="132.349,32.735 132.988,32.641 133.249,32.712 133.225,33.091 131.048,42.082 135.45,42.082 
		137.342,34.226 137.627,32.996 137.697,31.979 137.627,31.316 137.437,30.795 137.177,30.369 136.822,30.038 135.947,29.636 
		135.024,29.541 133.249,29.683 131.971,30.085 131.095,30.63 130.504,31.221 130.811,29.848 126.623,29.848 123.594,42.035 
		127.948,42.035 128.61,39.503 129.415,37.066 130.315,35.007 131.143,33.753 131.734,33.162 132.349,32.735 	"/>
	<polygon fill="#145EAB" points="138.313,38.865 138.549,39.977 139.26,41.065 140.348,41.893 141.01,42.13 141.768,42.225 
		142.785,42.154 143.59,41.964 145.246,41.065 144.938,42.035 144.702,42.722 144.371,43.266 143.945,43.668 143.401,43.952 
		141.957,44.094 139.969,43.81 139.26,46.129 140.703,46.413 142.146,46.532 143.779,46.508 145.53,46.153 147.139,45.395 
		147.849,44.78 148.488,44.047 149.008,43.124 149.364,42.012 152.724,29.517 147.754,29.517 145.743,29.778 144.796,30.062 
		143.897,30.488 142.288,31.505 140.916,32.83 139.804,34.321 138.999,35.883 138.478,37.421 138.313,38.865 	"/>
	<polygon fill="#145EAB" points="155.919,31.505 154.569,32.83 153.575,34.321 152.866,35.883 152.44,37.397 152.298,38.841 
		152.535,39.953 153.244,41.018 154.333,41.87 155.776,42.201 157.196,42.082 158.19,41.704 159.846,40.639 159.515,42.012 
		163.538,42.012 166.449,30.416 165.762,30.109 164.721,29.848 163.396,29.612 161.787,29.517 159.515,29.754 158.474,30.062 
		157.551,30.464 155.919,31.505 	"/>
	<path fill="#145EAB" d="M30.786,9.38c-8.069,0-14.837,5.395-16.659,13.251l0,0L8.779,45.727h13.417l15.003-22.102h7.17
		l-5.656,22.504l1.727-0.26c5.845-0.899,10.294-4.946,11.714-10.672l0,0L58.543,9.38L30.786,9.38L30.786,9.38L30.786,9.38z"/>
	<polygon fill="#FFD520" points="114.697,39.361 114.247,39.219 114.01,38.935 113.892,38.462 114.176,36.759 115.028,34.676 
		115.619,33.682 116.329,32.878 117.11,32.309 117.986,32.12 118.743,32.12 118.057,34.345 117.3,36.143 116.306,38.107 
		115.738,38.841 115.265,39.196 114.697,39.361 	"/>
	<polygon fill="#FFD520" points="86.537,32.641 86.703,32.878 86.726,33.469 86.419,34.96 85.614,37.043 84.999,38.013 
		84.289,38.865 83.461,39.432 82.491,39.645 81.733,39.598 82.277,37.942 82.893,36.498 84.1,34.298 84.644,33.588 85.188,33.067 
		85.732,32.688 86.135,32.546 86.537,32.641 	"/>
	<polygon fill="#FFD520" points="143.921,34.7 144.536,33.705 145.223,32.902 146.027,32.334 146.903,32.144 147.66,32.144 
		146.974,34.463 146.193,36.285 145.554,37.539 145.151,38.131 144.441,38.746 143.85,39.077 143.329,39.219 142.998,39.054 
		142.809,38.486 143.092,36.782 143.921,34.7 	"/>
	<polygon fill="#FFD520" points="158.474,33.682 159.184,32.878 159.965,32.309 160.84,32.12 161.621,32.12 160.911,34.345 
		160.178,36.143 159.16,38.107 158.592,38.841 158.119,39.196 157.574,39.361 157.101,39.219 156.865,38.935 156.747,38.462 
		157.031,36.759 157.883,34.676 158.474,33.682 	"/>
	<polygon fill="#FFD520" points="49.054,12.551 41.15,20.407 37.98,12.551 49.054,12.551 	"/>
</g>
</svg>
