<?xml version="1.0" encoding="utf-8"?>
<!-- Generator: Adobe Illustrator 22.1.0, SVG Export Plug-In . SVG Version: 6.00 Build 0)  -->
<svg version="1.1" id="Layer_1" xmlns="http://www.w3.org/2000/svg" xmlns:xlink="http://www.w3.org/1999/xlink" x="0px" y="0px"
	 viewBox="0 0 549.921 161.575" enable-background="new 0 0 549.921 161.575" xml:space="preserve">
<g id="Background" display="none">
</g>
<g id="Guides" display="none">
</g>
<g id="Foreground">
	<g>
		<g>
			<path fill="#0D558C" d="M72.087,0.791c-38.916,0-70.46,31.547-70.46,70.463c0,38.913,31.544,70.46,70.46,70.46h0.184v-11.49
				c-0.08,0-0.159,0.006-0.236,0.006c-34.715,0-62.855-28.143-62.855-62.858c0-34.711,28.14-62.855,62.855-62.855
				c0.077,0,0.156,0.003,0.236,0.003V0.794C72.21,0.794,72.148,0.791,72.087,0.791 M33.374,54.646
				c0,21.17,17.163,38.336,38.336,38.336c0.187,0,0.374-0.012,0.561-0.015V80.855c-0.264,0.009-0.524,0.022-0.788,0.022
				c-16.887,0-30.578-13.695-30.578-30.575c0-16.884,13.692-30.575,30.578-30.575c0.264,0,0.524,0.012,0.788,0.022V16.33
				c-0.187-0.003-0.374-0.015-0.561-0.015C50.536,16.313,33.374,33.476,33.374,54.646 M17.404,63.339
				c0,30.085,24.387,54.475,54.478,54.475c0.129,0,0.258-0.006,0.389-0.006v-12.106c-0.064,0-0.129,0.006-0.19,0.006
				c-25.804,0-46.72-20.919-46.72-46.714c0-25.807,20.916-46.717,46.72-46.717h0.19v-3.41c-0.132,0-0.261-0.003-0.389-0.003
				C41.791,8.865,17.404,33.249,17.404,63.339"/>
			<path fill="#0D558C" d="M127.358,98.234c0-30.084-24.387-54.475-54.478-54.475c-0.129,0-0.255,0.006-0.389,0.006v12.1h0.193
				c25.807,0,46.717,20.916,46.717,46.717s-20.91,46.717-46.717,46.717c-0.068,0-0.129-0.003-0.193-0.003v3.41
				c0.135,0,0.261,0.003,0.389,0.003C102.971,152.709,127.358,128.322,127.358,98.234 M111.392,106.928
				c0-21.17-17.166-38.333-38.336-38.333c-0.19,0-0.374,0.012-0.564,0.015v12.103c0.264-0.003,0.524-0.018,0.791-0.018
				c16.887,0,30.572,13.695,30.572,30.578c0,16.887-13.685,30.575-30.572,30.575c-0.267,0-0.528-0.012-0.791-0.019v3.419
				c0.19,0,0.374,0.015,0.564,0.015C94.226,145.264,111.392,128.104,111.392,106.928 M72.676,19.86h-0.184v11.487h0.236
				c34.718,0,62.858,28.14,62.858,62.852c0,34.718-28.14,62.858-62.858,62.858c-0.077,0-0.156-0.003-0.236-0.003v3.726
				c0.065,0.003,0.123,0.003,0.184,0.003c38.909,0,70.46-31.547,70.46-70.46C143.135,51.404,111.585,19.86,72.676,19.86"/>
		</g>
		<g>
			<path fill="#0D558C" d="M204.998,67.383c-2.635-2.2-6.007-3.663-9.523-3.663c-2.638,0-6.151,1.541-6.151,4.616
				c0,3.222,3.882,4.469,6.373,5.273l3.663,1.097c7.692,2.269,13.624,6.151,13.624,15.092c0,5.488-1.316,11.127-5.716,14.868
				c-4.319,3.663-10.108,5.198-15.674,5.198c-6.96,0-13.771-2.341-19.412-6.292l6.157-11.576c3.585,3.147,7.836,5.713,12.745,5.713
				c3.366,0,6.957-1.688,6.957-5.569c0-4.029-5.641-5.416-8.717-6.298c-9.011-2.563-14.943-4.91-14.943-15.602
				c0-11.211,7.985-18.53,19.046-18.53c5.563,0,12.377,1.754,17.284,4.538L204.998,67.383z"/>
			<path fill="#0D558C" d="M274.954,52.441v31.06c0,7.104-0.294,14.13-5.788,19.484c-4.613,4.541-11.867,6.148-18.309,6.148
				c-6.448,0-13.702-1.607-18.315-6.148c-5.491-5.353-5.791-12.38-5.791-19.484v-31.06h14.361v29.082
				c0,7.176,0.516,15.014,9.745,15.014c9.226,0,9.739-7.839,9.739-15.014V52.441H274.954z"/>
			<polygon fill="#0D558C" points="335.578,96.242 335.578,108.403 288.262,108.403 314.409,65.335 292.725,65.335 292.725,53.171 
				338.437,53.171 312.431,96.242 			"/>
			<path fill="#0D558C" d="M366.526,98.802l-3.813,9.601H347.48l21.24-55.232h15.68l20.803,55.232h-15.311l-3.588-9.601H366.526z
				 M376.559,70.238h-0.141l-5.935,17.58h11.936L376.559,70.238z"/>
			<polygon fill="#0D558C" points="417.773,53.171 432.133,53.171 458.43,86.938 458.577,86.938 458.577,53.171 472.929,53.171 
				472.929,108.403 458.577,108.403 432.28,74.561 432.133,74.561 432.133,108.403 417.773,108.403 			"/>
			<path fill="#0D558C" d="M548.294,79.765c0,17.868-12.82,30.467-30.545,30.467c-17.727,0-30.544-12.599-30.544-30.467
				c0-16.702,14.646-28.422,30.544-28.422C533.645,51.342,548.294,63.063,548.294,79.765 M502.148,79.837
				c0,9.523,7.029,16.477,15.602,16.477c8.57,0,15.602-6.954,15.602-16.477c0-7.62-7.032-14.574-15.602-14.574
				C509.177,65.263,502.148,72.217,502.148,79.837"/>
		</g>
	</g>
</g>
</svg>
