<?xml version="1.0" encoding="utf-8"?>
<!-- Generator: Adobe Illustrator 22.1.0, SVG Export Plug-In . SVG Version: 6.00 Build 0)  -->
<svg version="1.1" id="Modo_de_isolamento" xmlns="http://www.w3.org/2000/svg" xmlns:xlink="http://www.w3.org/1999/xlink" x="0px"
	 y="0px" viewBox="0 0 223.937 62.362" enable-background="new 0 0 223.937 62.362" xml:space="preserve">
<g id="g8">
	<path id="path12" fill="#13477C" d="M208.803,26.118c-0.07,0.132-0.154,0.258-0.209,0.396c-2.354,5.935-4.703,11.872-7.058,17.807
		c-0.697,1.754-1.453,3.485-2.106,5.254c-0.327,0.887-0.904,1.39-1.791,1.4c-3.052,0.036-6.106,0.038-9.158-0.01
		c-0.983-0.015-1.608-0.572-2.016-1.542c-2.826-6.719-5.712-13.414-8.564-20.123c-0.435-1.025-0.791-2.084-1.302-3.147
		c0,0.249,0,0.497,0,0.745c0,10.535,0,21.069,0,31.603c0,1.312-0.23,1.686-1.518,1.749c-2.603,0.126-5.212,0.146-7.82,0.176
		c-0.907,0.01-1.821-0.031-2.72-0.141c-1.262-0.154-1.414-0.367-1.414-1.594c0-18.335,0-36.669,0-55.005
		c0-1.123,0.249-1.434,1.391-1.578c0.784-0.098,1.579-0.161,2.368-0.164c2.85-0.011,5.7-0.027,8.548,0.038
		c0.945,0.021,1.912,0.184,2.81,0.465c0.467,0.146,0.984,0.616,1.178,1.067c3.04,7.088,6.075,14.179,9.016,21.309
		c1.729,4.197,3.291,8.464,4.907,12.643c0.01-0.025,0.075-0.201,0.143-0.377c2.258-5.744,4.475-11.506,6.788-17.229
		c2.181-5.401,4.489-10.752,6.684-16.148c0.42-1.034,1.098-1.543,2.131-1.607c1.488-0.093,2.982-0.145,4.473-0.161
		c1.938-0.022,3.878-0.019,5.814,0.033c0.715,0.019,1.429,0.181,2.135,0.324c0.635,0.129,0.912,0.541,0.903,1.213
		c-0.024,1.961-0.008,3.924-0.008,5.885c0,16.397,0,32.794,0,49.19c0,1.214-0.247,1.61-1.45,1.668
		c-2.557,0.123-5.12,0.149-7.682,0.173c-0.999,0.01-2.005-0.05-2.999-0.156c-1.117-0.118-1.315-0.393-1.315-1.533
		c-0.001-10.628-0.001-21.256-0.003-31.883c0-0.239,0-0.48,0-0.719C208.907,26.132,208.856,26.124,208.803,26.118z"/>
	<path id="path14" fill="#13477C" d="M101.736,14.57c-2.314,0-4.508,0-6.703,0c-2.148,0-4.298,0.001-6.446-0.002
		c-0.92-0.001-1.214-0.229-1.368-1.142c-0.098-0.572-0.158-1.158-0.163-1.739c-0.017-2.429-0.014-4.858-0.001-7.287
		c0.003-0.465,0.071-0.93,0.13-1.393c0.111-0.895,0.314-1.07,1.208-1.07c8.432-0.001,16.864,0,25.295,0
		c4.906,0,9.811-0.001,14.716-0.001c0.926,0,1.167,0.179,1.253,1.111c0.087,0.927,0.131,1.863,0.124,2.793
		c-0.019,2.426-0.037,4.853-0.133,7.276c-0.047,1.184-0.423,1.453-1.583,1.453c-4.017,0.001-8.035,0.001-12.052,0.001
		c-0.251,0-0.502,0-0.799,0c-0.012,0.292-0.032,0.519-0.032,0.746c0,14.387,0.001,28.776,0.002,43.164
		c0,1.361-0.192,1.7-1.568,1.775c-2.58,0.139-5.166,0.152-7.751,0.173c-1,0.008-2.005-0.062-2.999-0.172
		c-0.908-0.102-1.13-0.417-1.13-1.337c0-14.482,0-28.964,0-43.445C101.736,15.199,101.736,14.925,101.736,14.57z"/>
	<path id="path16" fill="#E4312A" d="M36.522,1.96c10.535,0,21.071,0.015,31.606-0.016c1.792-0.005,3.402,1.554,3.37,3.256
		c-0.039,2.078,0.003,4.158-0.022,6.236c-0.017,1.462-1.324,2.853-2.79,2.991c-0.808,0.075-1.62,0.132-2.431,0.132
		c-20.253,0.008-40.507,0.006-60.76,0.005c-1.498,0-2.814-0.413-3.562-1.831c-0.227-0.433-0.361-0.964-0.371-1.454
		C1.521,9.247,1.543,7.215,1.545,5.183c0.002-1.755,1.469-3.222,3.23-3.223C15.357,1.959,25.94,1.96,36.522,1.96z"/>
	<path id="path18" fill="#13477C" d="M138.738,31.18c0-9.156,0-18.312,0-27.469c0-1.19,0.217-1.478,1.421-1.598
		c1.089-0.109,2.187-0.173,3.28-0.166c2.31,0.016,4.618,0.084,6.926,0.147c0.298,0.008,0.596,0.096,0.888,0.175
		c0.64,0.175,0.949,0.562,0.944,1.27c-0.022,3.55-0.01,7.1-0.01,10.65c0,14.785,0,29.571,0,44.356c0,1.274-0.226,1.654-1.478,1.715
		c-2.605,0.128-5.215,0.148-7.824,0.17c-0.976,0.009-1.958-0.052-2.929-0.164c-1.013-0.118-1.217-0.404-1.218-1.407
		C138.738,49.632,138.738,40.406,138.738,31.18z"/>
	<path id="path20" fill="#E4312A" d="M43.502,24.953c0.255-0.011,0.462-0.028,0.67-0.028c7.919-0.001,15.837-0.003,23.755,0.002
		c1.809,0.002,3,0.836,3.454,2.424c0.093,0.328,0.112,0.687,0.113,1.032c0.006,1.985,0.013,3.971-0.015,5.955
		c-0.023,1.648-1.419,3.074-3.061,3.077c-8.175,0.02-16.349,0.015-24.525,0.017c-0.114,0-0.229-0.019-0.391-0.033
		C43.502,33.267,43.502,29.147,43.502,24.953z"/>
	<path id="path22" fill="#E4312A" d="M43.487,60.377c0-4.18,0-8.282,0-12.428c0.257-0.014,0.484-0.036,0.711-0.037
		c7.893-0.002,15.787-0.004,23.68-0.002c1.865,0.001,2.987,0.759,3.487,2.37c0.1,0.324,0.125,0.682,0.125,1.024
		c0.007,2.03,0.016,4.063-0.015,6.094c-0.023,1.517-1.509,2.998-3.011,2.999c-8.197,0.01-16.394,0.005-24.591,0.003
		C43.76,60.4,43.647,60.388,43.487,60.377z"/>
	<path id="path24" fill="#E4312A" d="M29.554,47.957c0,4.169,0,8.252,0,12.445c-0.256,0-0.5,0-0.745,0
		c-7.983,0-15.968,0.001-23.952,0c-1.871-0.001-3.31-1.436-3.312-3.301c-0.002-2.007-0.006-4.015,0.002-6.022
		c0.006-1.671,1.44-3.151,3.101-3.153c8.124-0.011,16.248-0.006,24.372-0.004C29.178,47.922,29.336,47.942,29.554,47.957z"/>
	<path id="path26" fill="#E4312A" d="M29.53,37.429c-0.303,0-0.576,0-0.849,0c-7.89-0.001-15.782-0.034-23.672,0.022
		c-1.896,0.014-3.578-1.591-3.485-3.528c0.094-1.933,0.014-3.875,0.023-5.813c0.007-1.653,1.441-3.155,3.095-3.159
		c8.171-0.018,16.341-0.012,24.512-0.013c0.112,0,0.225,0.019,0.376,0.032C29.53,29.116,29.53,33.233,29.53,37.429z"/>
</g>
</svg>
