<?xml version="1.0" encoding="utf-8"?>
<!-- Generator: Adobe Illustrator 22.1.0, SVG Export Plug-In . SVG Version: 6.00 Build 0)  -->
<svg version="1.1" id="Layer_1" xmlns="http://www.w3.org/2000/svg" xmlns:xlink="http://www.w3.org/1999/xlink" x="0px" y="0px"
	 viewBox="0 0 238.11 153.071" enable-background="new 0 0 238.11 153.071" xml:space="preserve">
<g>
	<path fill="#77787B" d="M68.297,145.003c-2.244,0-2.557-1.096-2.557-3.183v-12.106h4.904v-5.792H65.74v-7.724l-7.725,2.506v5.218
		H54.05v5.792h3.756v13.254c0,5.062,2.401,7.879,7.567,7.879c1.722,0,4.017-0.312,5.636-0.991l-0.312-5.374
		C69.862,144.847,69.184,145.003,68.297,145.003z M84.957,123.398c-7.671,0-12.264,6.212-12.264,13.57
		c0,7.826,4.018,13.879,12.264,13.879c8.034,0,12.21-6.416,12.21-13.879C97.167,129.245,93.149,123.398,84.957,123.398z
		 M84.957,145.212c-3.497,0-3.966-5.478-3.966-8.244c0-2.559,0.469-7.986,3.966-7.986c3.652,0,3.912,5.324,3.912,7.986
		C88.869,139.525,88.452,145.212,84.957,145.212z M21.876,115.468l-5.531,25.569l-5.741-25.569H1.577l9.863,34.807h9.342
		l9.809-34.807H21.876z M41.055,123.398c-7.672,0-12.264,6.212-12.264,13.57c0,7.826,4.017,13.879,12.264,13.879
		c8.034,0,12.21-6.416,12.21-13.879C53.265,129.245,49.247,123.398,41.055,123.398z M41.055,145.212
		c-3.498,0-3.967-5.478-3.967-8.244c0-2.559,0.469-7.986,3.967-7.986c3.652,0,3.912,5.324,3.912,7.986
		C44.967,139.525,44.551,145.212,41.055,145.212z M182.486,145.003c-2.246,0-2.559-1.096-2.559-3.183v-12.106h4.904v-5.792h-4.904
		v-7.724l-7.723,2.506v5.218h-3.967v5.792h3.76v13.254c0,5.062,2.398,7.879,7.565,7.879c1.723,0,4.02-0.312,5.637-0.991
		l-0.314-5.374C184.051,144.847,183.371,145.003,182.486,145.003z M188.66,120.64h7.934v-6.68h-7.934V120.64z M229.021,123.398
		c-3.131,0-5.428,1.566-6.992,4.49c-0.992-2.766-3.34-4.49-6.68-4.49c-3.287,0-5.687,1.62-7.148,4.49l-0.262-3.966h-7.201
		c0.104,1.825,0.156,3.703,0.156,5.53v20.822h7.881v-16.437c0-1.984,0.887-4.592,3.182-4.592c2.455,0,2.871,2.19,2.871,4.173v16.856
		h7.775v-16.437c0-1.984,0.99-4.592,3.236-4.592c2.451,0,2.869,2.19,2.869,4.173v16.856h7.826V132.74
		C236.535,127.575,234.449,123.398,229.021,123.398z M188.66,150.275h7.934v-26.353h-7.934V150.275z M158.162,123.398
		c-3.393,0-5.846,1.62-7.254,4.49l-0.209-3.966h-7.201c0.104,1.878,0.158,3.652,0.158,5.53v20.822h7.93v-16.437
		c0-2.089,0.887-4.592,3.391-4.592c2.35,0,3.029,2.086,3.029,4.173v16.856h7.93v-17.43
		C165.935,127.575,163.849,123.398,158.162,123.398z M138.906,132.948c0-5.844-2.506-9.551-10.49-9.551
		c-3.283,0-6.285,0.695-8.757,1.559v5.864c2.414-1.45,5.154-2.255,7.298-2.255c3.287,0,4.434,1.93,4.434,4.383v0.94h-1.824
		c-5.898,0-12.996,2.297-12.996,9.08c0,4.697,3.08,7.879,7.88,7.879c3.287,0,5.322-1.252,6.992-4.122l0.158,3.55h7.514
		c-0.053-1.566-0.209-3.185-0.209-5.793V132.948z M131.39,139.471c0,2.767-0.834,6.21-4.121,6.21c-2.035,0-3.236-1.303-3.236-3.391
		c0-3.445,3.287-4.385,6.473-4.385h0.885v1.566H131.39z M107.571,128.514l-0.158-4.592h-7.2c0.104,1.878,0.157,3.652,0.157,5.53
		v20.822h7.933v-11.689c0-3.443,0.73-8.193,5.163-8.193c0.785,0,1.516,0.156,2.246,0.314v-7.222
		c-0.302-0.029-0.635-0.087-0.94-0.087C111.221,123.398,109.032,125.382,107.571,128.514z"/>
	<g>
		
			<linearGradient id="SVGID_1_" gradientUnits="userSpaceOnUse" x1="95.5423" y1="77.7365" x2="175.3309" y2="120.1609" gradientTransform="matrix(1 0 0 -1 0 153.0705)">
			<stop  offset="0.0337" style="stop-color:#00639D"/>
			<stop  offset="0.0696" style="stop-color:#0E7AB1"/>
			<stop  offset="0.1404" style="stop-color:#30B2E1"/>
			<stop  offset="0.3" style="stop-color:#009CD1"/>
			<stop  offset="1" style="stop-color:#004A80"/>
		</linearGradient>
		<path fill="url(#SVGID_1_)" d="M141.599,8.271c1.725-3.583,5.399-6.046,9.641-6.046h0.118h25.207l-49.662,99.315
			c-1.509,3.021-4.511,5.195-8.119,5.195c-3.713,0-6.684-2.377-8.255-5.514l-13.48-27.024c0.772,0.148,1.581,0.223,2.391,0.223
			c2.117,0,4.118-0.509,5.877-1.414c0.044-0.019,0.093-0.032,0.135-0.054c3.362-1.746,6.096-4.54,7.769-7.947L141.599,8.271z"/>
		
			<linearGradient id="SVGID_2_" gradientUnits="userSpaceOnUse" x1="81.2754" y1="107.9524" x2="131.1879" y2="134.4915" gradientTransform="matrix(1 0 0 -1 0 153.0705)">
			<stop  offset="0.0337" style="stop-color:#00639D"/>
			<stop  offset="0.0864" style="stop-color:#107AB1"/>
			<stop  offset="0.18" style="stop-color:#33ACDC"/>
			<stop  offset="0.34" style="stop-color:#009CD1"/>
			<stop  offset="1" style="stop-color:#004A80"/>
		</linearGradient>
		<path fill="url(#SVGID_2_)" d="M99.875,8.126c1.705-3.417,5.196-5.793,9.256-5.9l0.3-0.002h24.039l-28.913,57.827
			c-1.398,2.788-3.98,4.935-7.291,4.935c-3.271-0.006-5.875-2.118-7.254-4.875L76.661,33.457c0.74,0.154,1.505,0.233,2.284,0.233
			c1.696,0,3.3-0.354,4.751-1.018l0.136-0.063c0.165-0.077,0.323-0.159,0.485-0.239c3.048-1.573,5.504-4.096,7.024-7.172
			l0.029-0.053l0.021-0.048L99.875,8.126z"/>
		
			<linearGradient id="SVGID_3_" gradientUnits="userSpaceOnUse" x1="67.032" y1="137.7716" x2="88.9117" y2="149.4052" gradientTransform="matrix(1 0 0 -1 0 153.0705)">
			<stop  offset="0" style="stop-color:#005E99"/>
			<stop  offset="0.0745" style="stop-color:#03639D"/>
			<stop  offset="0.1571" style="stop-color:#0C70A8"/>
			<stop  offset="0.2436" style="stop-color:#1A86BB"/>
			<stop  offset="0.3323" style="stop-color:#2EA5D6"/>
			<stop  offset="0.35" style="stop-color:#33ACDC"/>
			<stop  offset="0.51" style="stop-color:#009CD1"/>
			<stop  offset="1" style="stop-color:#004A80"/>
		</linearGradient>
		<path fill="url(#SVGID_3_)" d="M92.958,2.224l-9.555,19.099c-1.182,2.363-3.593,4.01-6.407,4.01c-2.827,0-5.244-1.647-6.424-4.01
			L61.026,2.224H92.958z"/>
	</g>
</g>
</svg>
