<?xml version="1.0" encoding="utf-8"?>
<!-- Generator: Adobe Illustrator 22.1.0, SVG Export Plug-In . SVG Version: 6.00 Build 0)  -->
<svg version="1.1" id="Layer_1" xmlns="http://www.w3.org/2000/svg" xmlns:xlink="http://www.w3.org/1999/xlink" x="0px" y="0px"
	 viewBox="0 0 456.378 170.079" enable-background="new 0 0 456.378 170.079" xml:space="preserve">
<g id="Background" display="none">
</g>
<g id="Guides" display="none">
</g>
<g>
	<path fill="#492CF4" d="M123.372,108.189V48.321H96.909v9.764c-9.739-6.662-21.515-10.564-34.205-10.564
		c-33.506,0-60.668,27.162-60.668,60.668s27.162,60.668,60.668,60.668c17.161,0,32.646-7.137,43.682-18.591
		c14.073,22.929,38.858,18.591,38.858,18.591v-23.894C145.243,144.963,123.372,143.681,123.372,108.189z M62.703,142.215
		c-18.792,0-34.026-15.234-34.026-34.026s15.234-34.026,34.026-34.026s34.026,15.234,34.026,34.026S81.496,142.215,62.703,142.215z"
		/>
	<rect x="357.846" y="52.663" fill="#492CF4" width="26.462" height="113.775"/>
	<path fill="#492CF4" d="M432.471,105.441V0.894h-26.463v104.547c0,69.15,48.334,60.668,48.334,60.668v-23.894
		C454.344,142.215,432.471,140.934,432.471,105.441z"/>
	<path fill="#492CF4" d="M409.695,84.717"/>
	<path fill="#492CF4" d="M287.129,45.604v-0.003c-20.038,0-34.903,8.441-40.824,12.439c-10.652-11.639-24.358-12.672-30.612-12.436
		v-0.003c-20.038,0-34.903,8.441-40.824,12.439c-14.251-15.571-33.998-12.138-33.998-12.138v23.894c0,0,21.872,1.281,21.872,36.774
		v59.869h26.462v-59.868c0-11.292-1.305-20.481-3.462-28.008c5.234-2.637,14.318-6.019,26.564-6.019
		c0.117,0,0.218-0.007,0.333-0.008c2.704-0.012,21.539,1.087,21.539,34.034v59.869h26.462v-59.868
		c0-11.292-1.305-20.481-3.462-28.008c5.234-2.637,14.318-6.019,26.564-6.019c0.117,0,0.218-0.007,0.333-0.008
		c2.704-0.012,21.539,1.087,21.539,34.034v59.869h26.462v-59.868C332.078,48.585,298.104,45.19,287.129,45.604z"/>
	<circle fill="#492CF4" cx="371.076" cy="23.181" r="16.792"/>
</g>
</svg>
