<?xml version="1.0" encoding="utf-8"?>
<!-- Generator: Adobe Illustrator 22.1.0, SVG Export Plug-In . SVG Version: 6.00 Build 0)  -->
<svg version="1.1" id="Modo_de_isolamento" xmlns="http://www.w3.org/2000/svg" xmlns:xlink="http://www.w3.org/1999/xlink" x="0px"
	 y="0px" viewBox="0 0 175.748 175.748" enable-background="new 0 0 175.748 175.748" xml:space="preserve">
<g>
	<path fill="#2E3191" d="M29.324,0.098h117.1c8.156,0,14.953,2.913,20.585,8.544c5.826,5.632,8.739,12.623,8.739,20.779v117.1
		c0,7.962-2.913,14.953-8.739,20.585c-5.632,5.632-12.428,8.544-20.585,8.544h-117.1c-8.156,0-15.147-2.913-20.779-8.544
		C2.913,161.474,0,154.484,0,146.521v-117.1c0-8.156,2.913-15.147,8.545-20.779C14.177,3.01,21.168,0.098,29.324,0.098L29.324,0.098
		z"/>
	<path fill="#FFF100" d="M134.19,99.72h9.515l11.652-11.846H142.54L134.19,99.72L134.19,99.72z M130.694,102.633H117.1v25.439
		c0,6.797,1.748,11.846,5.049,15.148c2.913,2.913,6.797,4.273,11.652,4.273c6.797,0,11.846-2.719,14.953-7.962h0.194v6.991h12.04
		v-43.888h-13.594v25.634c0,1.165-0.194,2.136-0.388,2.718c-1.554,3.69-4.273,5.632-8.351,5.632c-5.244,0-7.962-3.69-7.962-10.875
		L130.694,102.633L130.694,102.633z M95.739,117.198c-8.933,0-15.73,1.359-20.391,4.272c-4.855,2.913-7.38,7.185-7.38,12.817
		c0,3.495,1.359,6.602,3.884,9.127c2.913,2.719,6.602,4.078,11.069,4.078c6.02,0,10.487-1.942,13.594-5.632h0.388v4.66h12.429
		v-25.828c0-5.826-1.554-10.293-4.467-13.594c-3.495-3.69-8.739-5.632-15.73-5.632c-7.185,0-13.205,1.359-17.866,4.272l2.524,8.545
		c3.884-2.33,8.156-3.496,13.011-3.496c6.021,0,8.933,1.942,8.933,6.02v0.391H95.739z M62.532,102.633h-8.351V87.874H40.976v14.759
		h-6.215v10.098h6.215v17.671c0,6.021,1.165,10.487,3.69,13.012c2.524,2.719,6.214,4.078,10.681,4.078
		c2.913,0,5.243-0.389,7.379-1.165l-0.194-10.293c-0.389,0.389-1.165,0.583-2.525,0.583c-2.135,0-3.69-0.777-4.66-2.33
		c-0.777-1.165-1.165-3.107-1.165-6.02v-15.536h8.351v-10.098H62.532z M80.592,133.122c0-5.243,5.243-7.574,15.535-7.38v4.661
		l-0.194,2.525c-0.583,1.748-1.748,3.107-3.302,4.078c-1.553,1.359-3.495,1.942-5.631,1.942
		C82.728,138.948,80.592,137.006,80.592,133.122L80.592,133.122z M14.565,87.874v58.647h13.788V87.874H14.565L14.565,87.874z"/>
</g>
</svg>
