<?xml version="1.0" encoding="utf-8"?>
<!-- Generator: Adobe Illustrator 22.1.0, SVG Export Plug-In . SVG Version: 6.00 Build 0)  -->
<svg version="1.1" id="Layer_1" xmlns="http://www.w3.org/2000/svg" xmlns:xlink="http://www.w3.org/1999/xlink" x="0px" y="0px"
	 viewBox="0 0 221.102 73.701" enable-background="new 0 0 221.102 73.701" xml:space="preserve">
<g>
	<g>
		<g>
			<g>
				<g>
					<g>
						<path fill="#ED1A3B" d="M8.204,30.769c6.24-11.546,17.02-24.14,29.752-28.345c2.615-0.652,6.091-1.386,8.41,0.402
							c2.062,1.529,2.34,4.142,1.872,6.495c-0.612,2.782-2.519,6.306-5.708,6.754c-0.574-0.001-1.061-0.204-1.433-0.608
							c-0.83-0.807-0.769-1.984-0.592-3.045c0.525-2.208,2.57-4.555,4.925-4.863c0.403-0.257,0.233-0.745,0.119-1.09
							c-0.314-0.49-0.686-0.864-1.26-0.981c-2.553-0.297-4.482,1.305-6.439,2.646c-7.428,5.974-12.822,13.649-17.355,21.298
							c-3.699,6.877-6.852,13.985-7.77,22.02c-0.451,5.826,1.396,11.545,6.582,14.348c5.616,2.976,12.886,0.963,18.518-0.568
							l5.173-1.589l9.943-2.951c9.425-2.752,21.226-3.371,30.428,0.278c5.561,2.316,11.292,5.494,14.919,10.961
							c-0.001,0.143-0.001,0.316-0.173,0.286c-7.887-2.152-18.156-4.283-25.978-0.55l-0.373-0.086
							c-2.37-3.798-6.381-5.908-10.484-6.725c-13.258-1.281-24.159,4.997-36.624,6.562c-6.317,0.58-13.092,0.385-17.496-4.452
							c-6.952-6.943-6.134-19.198-2.832-27.569C5.399,36.444,6.73,33.578,8.204,30.769z"/>
						<path fill="#ED1A3B" d="M26.504,34.91c3.294-6.046,8.343-13.435,15.326-15.65c1.868-0.424,3.876-0.245,5.307,0.995
							c3.004,2.995,1.838,8.13,0.821,11.657c-0.001,0.202,0.171,0.431,0.371,0.461c2.67-0.077,4.827-1.332,6.757-3.163
							c4.15-4.636,8.592-10.706,15.335-9.994c1.263,0.206,2.495,0.927,3.15,2.107c1.711,3.393,0.033,7.148-2.301,9.752
							c-0.894,0.858-2.015,1.515-3.306,1.108c-0.517-0.174-0.945-0.692-1.144-1.209c-0.48-2.384,0.907-4.591,2.833-5.846
							c0.548-0.543,2.211-0.165,1.757-1.4c-0.343-0.49-0.86-0.549-1.405-0.551c-3.276,1.367-5.413,4.719-7.318,7.525
							c-2.395,3.753-4.333,7.736-5.61,11.951c-0.35,1.521-0.787,3.5,0.098,4.91c0.657,0.891,1.747,1.269,2.867,0.986
							c3.248-1.281,6.1-3.883,8.577-6.573c5.679-6.812,8.694-15.242,16.292-20.785c2.36-1.628,5.694-2.88,8.531-1.377
							c0.458,0.174,0.829,0.778,1.405,0.55c0.46-0.457,0.779-1.433,1.697-1.2c2.096,0.036,4.508-0.07,6.659,0.138l0.143,0.201
							l-0.608,1.461L90.942,44.923c-0.115,0.257-0.145,0.602-0.089,0.89c0.2,0.345,0.63,0.317,0.946,0.204
							c1.698-0.97,3.024-2.774,4.207-4.292c1.038-1.432,1.962-2.921,2.714-4.498c0.317-0.459,0.692-1.031,1.324-0.942
							c0.66,0.088,1.493-0.196,1.98,0.265c-0.754,2.007-1.937,3.839-2.977,5.731c-3.204,4.926-7.385,10.654-13.276,12.125
							c-0.976,0.112-2.182,0.194-2.926-0.527c-1.146-0.865-1.197-2.243-1.509-3.478c-0.114-0.145-0.315-0.174-0.487-0.117
							c-2.506,2.26-5.097,4.518-8.626,4.076c-1.09-0.234-2.12-1.069-2.605-2.105c-0.913-1.755-0.474-4.02-0.525-5.973
							c-0.085-0.23-0.372-0.144-0.487-0.058C64.775,50,60.63,53.401,55.545,54.36c-2.355,0.279-4.391-0.418-5.964-2.087
							c-3.801-4.98-0.792-11.514,1.205-16.359c0.087-0.229,0.059-0.546-0.228-0.603c-1.378,0.11-2.7,0.334-4.021,0.531l-0.461,0.516
							c-3.092,5.73-6.443,11.805-11.997,16.063c-2.302,1.657-5.722,2.794-8.415,1.263c-2.807-1.932-3.054-5.379-2.698-8.564
							C23.639,41.503,24.943,38.148,26.504,34.91z M35.289,34.624c-1.619,3.267-3.266,6.562-3.337,10.437
							c0.17,0.718,0.598,1.552,1.4,1.756c0.861,0.233,1.58-0.225,2.242-0.652c3.167-2.659,5.362-6.297,7.153-9.793
							c0.145-0.343,0.405-0.773,0.205-1.147c-1.892-0.752-3.725-2.052-5.183-3.692l-0.316-0.058
							c-0.287,0.056-0.403,0.342-0.604,0.543L35.289,34.624z M40.221,27.981c0.109,1.723,1.711,3.222,3.231,3.801
							c0.372,0.116,0.975,0.406,1.292-0.053c0.577-1.088,0.926-2.293,1.218-3.498c0.292-1.578,0.529-3.701-0.989-4.74
							c-0.516-0.289-1.291-0.32-1.837-0.064C41.411,24.283,40.171,26.029,40.221,27.981z M79.102,41.35
							c-0.436,1.434-1.102,2.982-0.647,4.562c0.142,0.316,0.486,0.547,0.801,0.634c1.292,0.033,2.158-1.141,2.993-2.057
							c3.779-5.24,6.669-10.885,9.273-16.618c0.434-1.203,1.127-2.321,1.103-3.671c-0.027-0.287-0.314-0.488-0.543-0.633
							c-0.573-0.26-1.12,0.14-1.58,0.368c-5.094,3.916-7.842,9.533-10.387,14.863L79.102,41.35z"/>
						<path fill="#ED1A3B" d="M103.64,26.622c1.127-2.235,2.082-4.557,3.497-6.676c0.576-0.63,1.465-0.599,2.241-0.682l5.654,0.077
							l0.229,0.231c-0.955,2.264-1.996,4.499-3.181,6.677c-0.289,0.573-0.893,1.117-1.554,1.201
							c-2.297,0.049-4.737,0.184-6.918-0.024C103.379,27.196,103.582,26.88,103.64,26.622z"/>
						<path fill="#ED1A3B" d="M109.312,38.096c3.933-8.139,8.668-15.988,15.38-22.913c6.511-6.494,13.562-11.751,22.094-13.358
							c2.326-0.336,4.938-0.126,6.712,1.459c0.344,0.288,0.745,0.576,1.233,0.406c6.123-2.448,14.623-3.309,20.756-0.244
							c3.553,1.735,6.933,3.957,10.342,6.093c0.43,0.231,0.227,0.689-0.003,0.948c-1.96,2.174-3.605,4.408-5.363,6.67
							c-0.201,0.2-0.517,0.113-0.717-0.002l-9.021-6.204c-4.21-2.856-9.055-4.854-14.541-3.955
							c-0.603,0.314-0.319,1.061-0.407,1.635c0.124,5.627-1.874,10.529-4.587,14.998c-2.165,3.122-4.673,6.385-8.351,7.434
							c-1.61,0.34-3.158-0.154-4.129-1.449c-2.684-4.086-0.313-9.073,1.651-12.712c2.253-3.953,5.74-7.673,9.51-10.531
							c0.086-0.143,0.259-0.286,0.145-0.459c-0.372-0.374-1.004-0.147-1.464-0.062c-6.122,2.046-11.021,7.454-15.546,12.577
							c-8.072,9.933-14.195,20.706-17.681,32.55c-1.078,4.445-2.536,11.273,1.988,14.389c3.982,2.139,7.81-0.605,10.805-3.177
							c4.551-4.636,7.613-9.993,8.868-16.046c0.207-1.807,0.703-4.274-0.957-5.514c-1.491-0.666-2.729,0.564-3.737,1.594
							c-2.335,2.805-3.322,6.161-3.736,9.776c-1.036,0.858-2.273,1.399-3.367,2.228c-2.072,1.428-4.116,3.344-5.759,5.263
							c-0.201,0.056-0.23-0.174-0.287-0.288c-0.235-6.661,2.138-12.366,5.802-17.492c2.911-3.377,6.653-6.264,11.184-5.186
							c1.979,0.523,3.293,2.624,3.66,4.49c0.724,6.261-1.907,11.735-4.738,16.835c-4.561,7.162-11.762,14.399-20.888,13.535
							c-3.501-0.213-6.766-2.635-8.247-5.855c-3.45-6.873-1.065-15.707,1.255-22.359L109.312,38.096z M140.357,26.232
							c0.084,0.776,0.396,1.608,1.2,1.899c1.548,0.436,2.787-0.708,3.938-1.594c4.15-4.377,6.664-9.45,7.316-15.276
							c0.002-0.861,0.294-1.951-0.192-2.699c-0.344-0.058-0.718,0.084-1.006,0.284c-2.791,1.856-5.413,4.574-7.317,7.324
							C142.305,19.235,140.485,22.386,140.357,26.232z"/>
						<path fill="#ED1A3B" d="M146.174,45.715c3.316-4.38,7.725-9.159,13.296-9.513c1.406,0.035,2.638,0.612,3.496,1.792
							c2.371,3.51,0.374,8.01-0.5,11.567c-0.086,0.316,0.142,0.546,0.371,0.633c1.148,0.177,2.469,0.01,3.476-0.504l0.432-0.544
							c4.002-11.411,9.952-22.012,17.019-32.121c4.414-5.841,10.06-11.879,16.615-14.698c1.552-0.54,3.794-1.193,5.282-0.039
							c1.66,1.355,1.193,3.707,0.756,5.514c-0.177,1.607-1.958,1.773-3.136,2.143c-0.058-0.03-0.116-0.001-0.173-0.059
							c0.033-1.034,0.581-1.95,0.785-2.954c0.06-0.546,0.148-1.004-0.081-1.522c-0.285-0.517-0.916-0.347-1.348-0.205
							c-2.215,1.082-4.001,3.057-5.702,4.975c-6.341,7.355-10.934,15.521-15.153,23.774c-1.387,2.866-2.834,5.703-3.963,8.684
							c-0.03,0.172,0.027,0.288,0.17,0.403c0.976-0.025,1.554-1.028,2.302-1.542c5.587-5.062,10.115-10.874,14.296-16.773
							c0.892-0.428,1.925-0.424,2.959-0.507l0.2,0.058c-0.06,0.804-0.75,1.433-1.126,2.149c-4.674,6.73-9.979,13.17-16.429,19.033
							l-4.664,3.831c-0.979,0.858-1.012,2.178-1.504,3.267c-0.9,2.954-1.801,5.964-1.927,9.208c0.027,0.545,0.226,1.063,0.684,1.352
							c1.233,0.55,2.212-0.624,3.077-1.424c6.313-7.299,9.099-16.246,16.815-22.793c2.534-2,5.869-3.712,9.137-2.208
							c0.573,0.203,1.001,0.951,1.692,0.609c0.488-0.343,0.52-1.118,1.209-1.087c2.268-0.021,4.68-0.099,6.86,0.081
							c0.2,0.173,0.056,0.46-0.002,0.66l-1.561,3.152l-9.655,19.488c-0.434,0.888-1.012,1.834-0.958,2.839
							c0.142,0.431,0.602,0.461,0.975,0.376c1.813-0.999,3.138-2.659,4.321-4.349c1.183-1.661,2.136-3.409,3.262-5.098
							c0.604-0.285,1.436-0.167,2.096-0.079c0.4,0.374-0.118,0.86-0.205,1.291c-2.834,5.875-6.789,12.292-12.972,15.543
							c-1.438,0.713-3.421,1.366-4.997,0.499c-1.26-0.866-1.14-2.444-1.71-3.652c-0.114-0.173-0.402-0.145-0.546-0.06
							c-2.563,2.288-5.327,4.862-8.912,3.873c-2.236-1.041-2.485-3.625-2.65-5.836c-0.114-0.087-0.057-0.258-0.199-0.345
							l-0.287,0.114c-2.508,3.005-5.679,6.756-9.898,6.396c-1.607-0.12-3.008-1.675-3.491-3.112
							c-1.477-4.685,0.092-9.818,1.141-14.321c0.001-0.259-0.286-0.518-0.515-0.548l-3.531,0.045l-0.577,0.659
							c-2.602,5.1-5.46,10.028-9.954,14.29c-2.361,2.087-5.267,3.829-8.507,2.87c-2.694-1.158-3.401-4.088-3.392-6.844
							C139.245,57.204,142.366,51.329,146.174,45.715z M147.097,61.307c0.054,0.976,0.539,1.983,1.542,2.302
							c0.659,0.232,1.378-0.053,1.953-0.338c3.31-2.457,5.275-6.239,7.066-9.678c0.174-0.344,0.319-0.889-0.139-1.15
							c-1.719-0.866-3.38-2.221-4.752-3.748c-0.171-0.173-0.488-0.203-0.689-0.089c-1.241,1.661-2.051,3.496-2.918,5.329
							C148.176,56.259,147.106,58.551,147.097,61.307z M155.42,45.202c0.108,1.751,1.51,3.392,3.116,3.972
							c0.315,0.116,0.889,0.262,1.12-0.139c0.984-2.236,1.912-4.788,1.403-7.373c-0.199-0.604-0.714-1.208-1.344-1.412
							c-0.631-0.174-1.292,0.025-1.838,0.281C156.265,41.588,155.483,43.337,155.42,45.202z M187.06,60.526
							c-0.061,0.832-0.266,1.865,0.365,2.499c0.342,0.346,0.888,0.376,1.319,0.235c1.697-0.884,2.794-2.689,3.833-4.178
							c3.463-5.385,6.009-11.146,8.384-16.994c0.088-0.517,0.234-1.234-0.253-1.58c-1.404-0.665-2.5,0.882-3.537,1.625
							c-4.58,4.548-7.01,10.051-9.298,15.583L187.06,60.526z"/>
						<path fill="#ED1A3B" d="M193.753,17.719l3.056-3.951l0.461-0.4c8.843-0.17,15.75-5.428,21.972-11.637
							c-0.031,0.833-0.408,1.606-0.697,2.352c-4.081,9.603-13.985,18.037-24.693,18.173l-2.526-0.038
							c-0.459-0.116-0.141-0.575-0.026-0.804L193.753,17.719z"/>
					</g>
				</g>
			</g>
		</g>
	</g>
	<path fill="#ED1A3B" d="M204.905,68.403c0-1.202,0.906-2.108,2.067-2.108c1.147,0,2.053,0.906,2.053,2.108
		c0,1.221-0.906,2.12-2.053,2.12C205.811,70.523,204.905,69.624,204.905,68.403z M206.972,70.946c1.382,0,2.563-1.073,2.563-2.542
		c0-1.456-1.181-2.53-2.563-2.53c-1.396,0-2.577,1.074-2.577,2.53C204.395,69.872,205.576,70.946,206.972,70.946z M206.435,68.605
		h0.51l0.772,1.268h0.497l-0.833-1.288c0.43-0.054,0.759-0.282,0.759-0.805c0-0.577-0.343-0.832-1.034-0.832h-1.114v2.925h0.443
		V68.605z M206.435,68.228v-0.905h0.604c0.309,0,0.637,0.067,0.637,0.43c0,0.45-0.335,0.476-0.711,0.476h-0.53V68.228z"/>
</g>
</svg>
