<?xml version="1.0" encoding="utf-8"?>
<!-- Generator: Adobe Illustrator 22.1.0, SVG Export Plug-In . SVG Version: 6.00 Build 0)  -->
<svg version="1.1" id="Ebene_1" xmlns="http://www.w3.org/2000/svg" xmlns:xlink="http://www.w3.org/1999/xlink" x="0px" y="0px"
	 viewBox="0 0 459.213 351.496" enable-background="new 0 0 459.213 351.496" xml:space="preserve">
<g>
	<path fill="#A21D26" d="M433.179,126.625c-7.095-21.577-2.878-37.218-15.12-52.71c-14.199-13.549-30.741-10.861-48.718-21.442
		c-17.188-11.858-21.204-27.494-38.297-33.951c-19.299-5.846-31.207,3.872-53.157,1.116c-24.055-4.658-27.361-17.26-48.221-18.035
		l-0.053,0.005l-0.116-0.005c-20.86,0.775-24.166,13.377-48.221,18.035c-21.944,2.756-33.858-6.962-53.157-1.116
		c-17.087,6.457-21.108,22.092-38.296,33.951c-17.977,10.581-34.519,7.893-48.708,21.442c-12.253,15.492-8.036,31.133-15.13,52.71
		c-8.56,20.904-23.547,28.163-23.547,49.018c0,20.859,14.987,28.329,23.547,49.231c7.095,21.579,2.878,37.223,15.13,52.712
		c14.189,13.549,30.731,10.867,48.708,21.442c17.188,11.855,21.209,27.493,38.296,33.948c19.299,5.851,31.213-3.873,53.157-1.111
		c24.055,4.666,27.361,17.257,48.221,18.029h0.116h0.053c20.859-0.772,24.166-13.363,48.221-18.029
		c21.95-2.762,33.858,6.962,53.157,1.111c17.093-6.455,21.108-22.093,38.297-33.948c17.977-10.575,34.519-7.893,48.718-21.442
		c12.242-15.489,8.025-31.133,15.12-52.712c8.56-20.902,23.595-28.595,23.595-49.231
		C456.773,154.658,441.738,147.529,433.179,126.625z M229.607,311.571c-113.826,0-189.858-59.601-189.858-135.818
		c0-76.22,76.048-135.82,189.858-135.82c114.043,0,189.854,59.601,189.854,135.82C419.461,251.97,343.365,311.571,229.607,311.571z"
		/>
	<path fill="#212C5E" d="M92.451,173.126c0-42.716,25.97-69.565,61.293-69.565c11.205,0,17.479,2.254,21.188,3.793
		c3.01,1.386,4.37,2.286,6.333,2.286c2.709,0,3.534-1.544,4.471-3.568c0.566-1.188,0.926-1.571,1.936-1.571h7.935
		c1.174,0,1.994,0.756,1.989,1.991v34.71c0.005,1.22-0.756,1.994-1.994,1.994h-7.766c-1.09,0-1.719-0.418-2.005-1.809
		c-2.968-16.313-8.771-26.156-27.065-26.156c-23.034,0-28.583,35.525-28.583,53.067c0,26.685,3.026,62.325,29.557,62.325
		c19.193,0,24.912-10.882,27.346-26.425c0.323-1.492,1.27-1.735,1.974-1.735h7.803c1.175,0,2.011,0.741,2,1.989v34.651
		c0.011,1.206-0.756,1.989-1.989,1.989h-7.967c-0.783,0.011-1.402-0.211-1.883-1.275c-0.45-0.999-1.312-2.264-3.169-2.264
		c-4.422,0-12.268,4.613-29.874,4.613C114.152,242.168,92.451,209.235,92.451,173.126"/>
	<path fill="#212C5E" d="M261.551,157.047h-15.459c-1.338,0-1.666,0.682-1.762,1.074c-1.237,4.941-3.603,9.879-7.104,14.821
		l-9.655-14.377c7.02-3.068,14.728-7.845,14.728-15.548c0-8.798-7.284-14.371-17.341-14.371c-10.158,0-19.791,5.497-19.791,16.733
		c0,4.859,2.105,8.504,4.507,11.708c-7.74,2.352-17.236,9.419-17.045,19.529c0.222,11.639,10.575,18.484,23.431,18.484
		c5.222,0,12.004-1.058,17.696-5.512c4.672,4.708,12.464,4.137,12.464,4.137h6.243c1.259,0,1.587-0.582,1.841-1.206l1.915-4.55
		c0.698-1.715-0.825-1.551-1.291-1.551h-2.793c-6.375-0.005-9.411-5.146-9.411-5.146c3.931-3.941,4.56-5.101,7.089-8.655
		c1.576-2.222,3.798-5.862,3.798-5.862c0.995-1.542,1.667-2.544,3.354-2.544h2.116c0.893-0.006,1.423-0.413,1.83-1.252l1.847-4.182
		C263.492,156.938,262.424,157.047,261.551,157.047z M224.698,134.621c3.677,0,5.375,3.38,5.375,6.767
		c0,4.933-2.412,8.591-7.343,11.186c-2.709-3.965-4.222-6.761-4.222-11.057C218.509,137.832,220.73,134.621,224.698,134.621z
		 M218.091,187.947c-6.989,0-11.411-4.443-11.411-11.993c0-4.796,2.804-9.935,6.93-12.541l14.278,19.635
		C225.084,185.852,222.423,187.947,218.091,187.947z"/>
	<path fill="#232962" d="M372.663,229.508l-2.407-0.01c-5.751-0.032-7.47-1.651-9.194-6.561
		c-0.026-0.016-36.472-103.994-40.926-116.704c-0.392-1.116-1.217-1.732-2.545-1.732h-15.638c-1.106,0-2.08,0.415-2.582,1.732
		l-49.015,117.243c-1,2.396-1.9,3.82-4.228,4.994c-2.307,1.175-6.406,1-6.406,1l-1.296,0.037c-1.232,0-1.995,0.772-1.995,2.006
		v7.591c0,1.28,0.799,1.989,1.995,1.989h38.143c1.249,0,2.005-0.804,2.005-2.01v-7.587c0-1.248-0.804-1.979-1.999-1.989
		l-4.248-0.037c-3.486-0.031-7.169-0.243-7.158-4.1c0.006-1.164,0.344-2.65,1.122-4.56l7.464-18.347h44.64
		c2.064,5.756,5.365,16.352,5.365,16.352s1.158,3.57,1.539,5.068c0.138,0.555,0.28,1.28,0.259,2.02
		c-0.047,1.677-0.946,3.444-4.618,3.513l-4.65,0.09c-1.195,0-1.999,0.772-1.999,2.011v7.586c0,1.18,0.773,1.989,1.999,1.989h56.363
		c1.19,0,2-0.74,2-2.01v-7.565C374.652,230.28,373.864,229.508,372.663,229.508z M277.913,191.978l21.342-53.078l16.088,53.078
		H277.913z"/>
</g>
</svg>
