<?xml version="1.0" encoding="utf-8"?>
<!-- Generator: Adobe Illustrator 22.1.0, SVG Export Plug-In . SVG Version: 6.00 Build 0)  -->
<svg version="1.1" id="Layer_1" xmlns="http://www.w3.org/2000/svg" xmlns:xlink="http://www.w3.org/1999/xlink" x="0px" y="0px"
	 viewBox="0 0 172.913 39.685" enable-background="new 0 0 172.913 39.685" xml:space="preserve">
<g>
	<path fill="#2379BE" d="M62.077,13.123c0,0,0.906,0.118,1.944,0.118c0.964,0,1.729-0.125,1.729-0.125s-0.018,6.567-0.018,9.874
		c0,1.246,0,2.5,0,3.746c0,1.201-0.003,2.358-0.198,3.437c-0.191,1.056-0.563,1.993-1.031,2.91c-0.43,0.841-1.063,1.612-1.769,2.294
		c-0.964,0.927-2.053,1.557-3.201,2.12c-0.804,0.385-1.68,0.683-2.556,0.907c-1.707,0.422-3.5,0.682-5.389,0.74
		c-0.809,0.025-1.669,0.008-2.457-0.021c-2.502-0.078-4.913-0.4-7.04-1.213c-0.605-0.232-1.174-0.51-1.746-0.793
		c-0.722-0.377-1.456-0.834-2.054-1.415c-1.989-1.931-2.613-4.238-2.701-7.113c0-0.955,0-1.911,0-2.866c0-2.199,0-4.41,0-6.607
		c0-1.508,0-3.02,0-4.525c0-0.318,0-0.641,0-0.965c0-0.139-0.003-0.488-0.003-0.488s1.232,0.105,2.699,0.105
		c1.464,0,2.429-0.118,2.57-0.118c0,4.248,0,8.501,0,12.742c0,0.769,0,1.533,0,2.287c0.068,2.222,0.571,4.64,2.124,6.105
		c2.235,2.099,5.61,2.418,8.919,2.418c0.469-0.004,1.329-0.014,2.187-0.149c0.798-0.119,1.974-0.422,2.306-0.541
		c1.376-0.49,2.763-1.188,3.723-2.424c0.623-0.807,1.077-1.643,1.397-2.599c0.541-1.626,0.565-3.453,0.565-5.378
		c0-1.036,0-2.071,0-3.102C62.077,19.356,62.077,13.123,62.077,13.123 M125.542,12.639c1.201,0,2.396-0.024,3.558,0.05
		c0.809,0.051,1.621,0.123,2.407,0.186c0.683,0.056,1.362,0.132,2.024,0.249c0.668,0.124,1.336,0.211,1.99,0.363
		c1.065,0.252,2.145,0.481,3.148,0.873c0.346,0.131,0.699,0.258,1.032,0.408c0.124,0.051,0.25,0.1,0.373,0.159
		c-0.152,0.31-0.297,0.625-0.449,0.936c-0.326,0.705-0.631,1.408-0.907,2.132c-0.11,0.298-0.222,0.602-0.333,0.892
		c-0.165-0.132-0.338-0.277-0.498-0.406c-0.317-0.268-0.623-0.527-0.946-0.752c-1.061-0.748-2.248-1.359-3.483-1.775
		c-0.979-0.332-1.997-0.637-3.055-0.809c-6.021-0.97-13.329-0.025-16.61,4.979c-0.582,0.874-0.991,1.843-1.25,2.882
		c-0.073,0.29-0.152,0.595-0.184,0.913c-0.079,0.691-0.174,1.404-0.145,2.158c0.044,1.483,0.29,2.9,0.831,4.131
		c0.478,1.102,1.117,2.084,1.989,2.984c1.502,1.545,3.525,2.459,5.527,3.029c2.132,0.592,4.457,0.782,6.904,0.782
		c1.069-0.035,1.88-0.09,2.476-0.151c0.381-0.039,1.653-0.219,2.001-0.285c0.259-0.059,0.524-0.117,0.789-0.18
		c0.449-0.109,0.909-0.234,1.352-0.373c0.1-0.035,0.404-0.145,0.404-0.145s0-0.371,0-0.498c0-0.498,0-0.983,0-1.475
		c0-1.869,0.021-3.727,0.021-5.578c-0.521,0-0.962,0.014-1.474,0.059c-0.262,0.008-0.574,0.025-0.879,0.061
		c-0.485,0.041-0.873,0.075-1.426,0.123c0.033-0.234,0.148-0.699,0.148-1.397c0-0.703-0.173-1.369-0.173-1.369
		s0.675,0.067,0.945,0.086c0.408,0.035,0.857,0.087,1.259,0.087c0.686,0.061,1.114,0.076,1.89,0.072c1.648,0,3.288,0,4.937,0
		c0,2.806,0,5.619,0,8.436c0,0.778,0,1.539,0,2.31c0,0.128-0.012,0.599-0.012,0.599s-0.335,0.097-0.445,0.124
		c-0.458,0.105-0.914,0.208-1.371,0.314c-1.717,0.371-3.462,0.662-5.247,0.89c-2.239,0.28-4.527,0.429-6.929,0.429
		c-2.146,0-4.188-0.104-6.14-0.449c-0.929-0.164-1.846-0.326-2.717-0.599c-1.175-0.37-2.31-0.724-3.382-1.274
		c-1.447-0.742-2.804-1.614-3.995-2.881c-1.072-1.145-1.841-2.443-2.352-3.869c-0.492-1.371-0.742-2.939-0.666-4.573
		c0.053-1.155,0.242-2.186,0.555-3.19c0.153-0.477,0.35-0.941,0.574-1.376c1.675-3.353,4.928-5.432,8.299-6.644
		c0.977-0.346,1.98-0.633,3.015-0.857c0.703-0.159,2.064-0.394,3.174-0.526C123.213,12.767,125.041,12.66,125.542,12.639"/>
	<path fill="#2379BE" d="M8.091,26.063c0,3.273,0,6.758,0,10.023c3.382,0,6.77,0,10.151,0c1.51-0.048,2.303-0.239,3.16-0.484
		c0.733-0.211,1.412-0.5,2.39-1.203c0.68-0.496,1.268-1.326,1.513-2.095c0.39-1.182,0.152-2.794-0.505-3.733
		c-0.386-0.534-0.938-0.946-1.487-1.244c-0.745-0.415-1.57-0.612-2.42-0.819c-0.682-0.164-1.422-0.251-2.144-0.306
		c-1.416-0.11-2.883-0.139-4.382-0.139C12.277,26.063,10.187,26.063,8.091,26.063 M8.091,15.674c0,2.78,0,8.078,0,8.078h3.994
		c0,0,1.209-0.021,1.609-0.021c1.356-0.006,3.084-0.103,4.018-0.192c0.933-0.085,2.046-0.169,3.117-0.519
		c0.691-0.232,1.478-0.58,2.071-1.009c1.03-0.741,1.69-1.746,1.622-3.089c-0.033-0.72-0.217-1.232-0.649-1.743
		c-0.362-0.43-0.862-0.7-1.35-0.891c-1.457-0.563-3.577-0.632-5.529-0.611c-1.003,0.007-2.14-0.003-3.204-0.003
		C11.887,15.674,9.991,15.674,8.091,15.674 M2.045,13.148c0,0,16.607-0.004,17.005-0.004c2.74,0.082,5.688,0.331,7.884,1.495
		c0.774,0.408,1.465,1.066,1.893,1.833c0.846,1.536,0.494,3.724-0.459,5.038c-0.802,1.104-2.077,1.938-3.251,2.512
		c-0.476,0.229-1.136,0.437-1.64,0.616c-0.136,0.056-0.267,0.102-0.452,0.165c0,0.012,0,0.008,0,0.014
		c0.182,0.025,0.372,0.049,0.558,0.076c0.524,0.074,1.477,0.254,1.967,0.371c2.494,0.575,5.223,2.143,5.242,5.809
		c0.014,1.371-0.373,2.43-0.774,3.209c-0.612,1.175-1.65,2.072-3.295,2.916c-3.18,1.636-9.241,1.451-14,1.451
		c-3.558,0-7.115,0-10.678,0C2.045,30.28,2.045,13.148,2.045,13.148 M144.809,13.144c8.584,0,17.16,0,25.747,0
		c-0.064,0.515-0.183,1.011-0.176,1.593c0.007,0.595,0.188,1.445,0.197,1.545c-0.547-0.072-1.09-0.137-1.638-0.211
		c-1.714-0.187-3.824-0.241-4.188-0.248c-1.308-0.043-2.679-0.021-4.019-0.021c-0.159-0.007-0.317-0.021-0.48-0.027
		c-1.364,0-2.769,0-4.109-0.021c-2.023,0-4.041,0-6.062,0c0,2.75,0,5.235,0,7.985c5.017,0,10.041,0,15.055,0
		c0.19-0.008,1.347-0.045,1.495-0.045c0.14-0.008,2.61-0.149,2.79-0.149c-0.041,0.239-0.167,0.774-0.167,1.412
		c0,0.637,0.108,0.914,0.147,1.397c-0.487-0.011-0.914-0.041-1.408-0.066c-0.866-0.051-1.628-0.092-2.609-0.118
		c-1.277-0.002-2.549-0.002-3.829-0.002c-3.823,0-7.648,0-11.473,0c0,3.245,0,6.635,0,9.888c1.954,0,3.915,0,5.869,0
		c0.564,0,1.741-0.023,2.33-0.023c0.56,0,1.367-0.004,1.902-0.024c0.551,0,1.243-0.028,1.635-0.028c0.581,0,1.113-0.02,1.468-0.02
		c0.37-0.013,1.986-0.031,2.457-0.05c0.166,0,0.595-0.023,0.769-0.023c0.21-0.003,1.481-0.064,2.021-0.121
		c0.541-0.055,2.071-0.207,2.139-0.214c0.07-0.008,0.131-0.014,0.197-0.026c-0.045,0.304-0.176,0.808-0.176,1.617
		c0,0.879,0.109,0.977,0.176,1.495c-8.687,0-17.371,0-26.059,0C144.809,30.136,144.809,21.641,144.809,13.144 M97.944,13.144
		c0.516,0.049,0.848,0.111,1.891,0.111c1.041,0,1.733-0.102,1.767-0.111c0,8.54,0,25.528,0,25.528l-2.58,0.006
		c0,0-0.118-0.107-0.194-0.181c-0.312-0.269-0.623-0.539-0.942-0.806c-0.312-0.277-0.635-0.537-0.959-0.799
		c-0.861-0.684-1.727-1.363-2.597-2.045c-4.422-3.449-8.843-6.91-13.265-10.369c-1.435-1.121-2.874-2.25-4.313-3.377
		c-0.426-0.324-0.85-0.66-1.272-0.986c-0.054-0.045-0.237-0.217-0.295-0.217c0-0.028,0.01-0.021-0.02-0.021
		c0,6.292,0,18.803,0,18.803s-0.859-0.131-1.735-0.131c-0.926,0-1.914,0.131-1.92,0.131c0-6.514,0-12.949,0-19.449
		c0-1.541,0-3.084,0-4.619c0-0.439,0-1.468,0-1.468h2.948c0,0,0.261,0.2,0.366,0.292c0.332,0.262,0.667,0.519,0.998,0.773
		c1.308,1.021,2.617,2.042,3.922,3.062c4.096,3.193,8.194,6.396,12.294,9.594c1.474,1.148,2.955,2.311,4.433,3.459
		c0.147,0.107,1.454,1.136,1.454,1.143c0.007,0,0.015,0,0.021,0C97.944,25.356,97.944,19.261,97.944,13.144"/>
	<path fill="#2379BE" d="M57.379,2.634c-1.619-1.316-3.688-2.105-5.944-2.105c-2.253,0-4.322,0.789-5.946,2.105H57.379
		 M43.568,4.734c-0.432,0.65-0.791,1.353-1.054,2.101h17.841c-0.262-0.748-0.619-1.45-1.052-2.101H43.568 M41.976,9.988
		c0,0.351,0.017,0.707,0.057,1.047h18.805c0.038-0.34,0.059-0.696,0.059-1.047c0-0.352-0.021-0.713-0.059-1.055H42.033
		C41.993,9.275,41.976,9.636,41.976,9.988 M45.489,17.341c1.624,1.317,3.693,2.101,5.946,2.101c2.256,0,4.325-0.783,5.949-2.101
		H45.489 M42.514,13.137c0.263,0.754,0.622,1.453,1.054,2.104h15.735c0.433-0.65,0.789-1.35,1.052-2.104H42.514"/>
</g>
</svg>
